# Blender v3.0.0 OBJ File: ''
# www.blender.org
mtllib moleculart2.mtl
o cube.013
v -0.124937 0.562500 0.125000
v -0.124937 0.250000 0.125000
v -0.124937 0.562500 -0.125000
v -0.124937 0.250000 -0.125000
v -0.125000 0.562500 -0.125000
v -0.125000 0.250000 -0.125000
v -0.125000 0.562500 0.125000
v -0.125000 0.250000 0.125000
vt 0.093750 1.000000
vt 0.093750 0.921875
vt 0.140625 1.000000
vt 0.140625 0.921875
vt 0.093750 1.000000
vt 0.093750 0.921875
vt 0.140625 1.000000
vt 0.140625 0.921875
vt 0.093750 0.921875
vt 0.140625 0.921875
vt 0.093750 1.000000
vt 0.140625 1.000000
vt 0.093750 1.000000
vt 0.093750 0.921875
vt 0.140625 1.000000
vt 0.140625 0.921875
vt 0.093750 1.000000
vt 0.093750 0.921875
vt 0.140625 1.000000
vt 0.140625 0.921875
vn 1.0000 0.0000 0.0000
vn -1.0000 0.0000 0.0000
vn 0.0000 1.0000 0.0000
vn 0.0000 -1.0000 -0.0000
vn 0.0000 -0.0000 1.0000
vn 0.0000 0.0000 -1.0000
usemtl m_0
s 1
f 1/1/1 2/2/1 3/3/1
f 2/2/1 4/4/1 3/3/1
f 5/5/2 6/6/2 7/7/2
f 6/6/2 8/8/2 7/7/2
f 5/5/3 7/9/3 3/3/3
f 7/9/3 1/10/3 3/3/3
f 8/11/4 6/6/4 2/12/4
f 6/6/4 4/4/4 2/12/4
f 7/13/5 8/14/5 1/15/5
f 8/14/5 2/16/5 1/15/5
f 3/17/6 4/18/6 5/19/6
f 4/18/6 6/20/6 5/19/6
o cube.003
v 0.305466 0.783632 0.125000
v 0.186176 0.563927 0.125000
v 0.305466 0.783632 -0.125000
v 0.186176 0.563927 -0.125000
v 0.250540 0.813455 -0.125000
v 0.131250 0.593750 -0.125000
v 0.250540 0.813455 0.125000
v 0.131250 0.593750 0.125000
vt 0.054688 0.914062
vt 0.054688 0.843750
vt 0.101562 0.914062
vt 0.101562 0.843750
vt 0.148438 0.757812
vt 0.148438 0.695312
vt 0.281250 0.757812
vt 0.281250 0.695312
vt 0.148438 0.695312
vt 0.281250 0.757812
vt 0.281250 0.695312
vt 0.148438 0.757812
vt 0.281250 0.757812
vt 0.281250 0.695312
vt 0.148438 0.757812
vt 0.148438 0.695312
vt 0.281250 0.757812
vt 0.281250 0.695312
vt 0.148438 0.757812
vt 0.148438 0.695312
vt 0.281250 0.757812
vt 0.281250 0.695312
vn 0.8788 -0.4772 0.0000
vn -0.8788 0.4772 0.0000
vn 0.4772 0.8788 0.0000
vn -0.4772 -0.8788 0.0000
vn 0.0000 -0.0000 1.0000
vn -0.0000 0.0000 -1.0000
usemtl m_0
s 1
f 9/21/7 10/22/7 11/23/7
f 10/22/7 12/24/7 11/23/7
f 13/25/8 14/26/8 15/27/8
f 14/26/8 16/28/8 15/27/8
f 13/25/9 15/29/9 11/30/9
f 15/29/9 9/31/9 11/30/9
f 16/32/10 14/26/10 10/33/10
f 14/26/10 12/34/10 10/33/10
f 15/35/11 16/36/11 9/37/11
f 16/36/11 10/38/11 9/37/11
f 11/39/12 12/40/12 13/41/12
f 12/40/12 14/42/12 13/41/12
o cube.007
v 0.185637 0.249526 0.125000
v 0.304926 0.029822 0.125000
v 0.185637 0.249527 -0.125000
v 0.304926 0.029823 -0.125000
v 0.130710 0.219705 -0.125000
v 0.250000 0.000000 -0.125000
v 0.130710 0.219704 0.125000
v 0.250000 -0.000000 0.125000
vt 0.054688 0.914062
vt 0.054688 0.843750
vt 0.101562 0.914062
vt 0.101562 0.843750
vt 0.148438 0.757812
vt 0.148438 0.695312
vt 0.281250 0.757812
vt 0.281250 0.695312
vt 0.148438 0.757812
vt 0.148438 0.695312
vt 0.281250 0.757812
vt 0.281250 0.695312
vt 0.148438 0.757812
vt 0.148438 0.695312
vt 0.281250 0.757812
vt 0.281250 0.695312
vt 0.148438 0.757812
vt 0.148438 0.695312
vt 0.281250 0.757812
vt 0.281250 0.695312
vn 0.8788 0.4772 0.0000
vn -0.4771 0.8788 0.0000
vn 0.4772 -0.8788 -0.0000
vn -0.0000 -0.0000 1.0000
vn 0.0000 0.0000 -1.0000
usemtl m_0
s 1
f 17/43/13 18/44/13 19/45/13
f 18/44/13 20/46/13 19/45/13
f 21/47/14 23/48/14 19/49/14
f 23/48/14 17/50/14 19/49/14
f 24/51/15 22/52/15 18/53/15
f 22/52/15 20/54/15 18/53/15
f 23/55/16 24/56/16 17/57/16
f 24/56/16 18/58/16 17/57/16
f 19/59/17 20/60/17 21/61/17
f 20/60/17 22/62/17 21/61/17
o cube.012
v 0.125000 0.562500 0.125063
v 0.125000 0.250000 0.125063
v 0.125000 0.562500 0.125000
v 0.125000 0.250000 0.125000
v -0.125000 0.562500 0.125000
v -0.125000 0.250000 0.125000
v -0.125000 0.562500 0.125063
v -0.125000 0.250000 0.125063
vt 0.093750 1.000000
vt 0.093750 0.921875
vt 0.140625 1.000000
vt 0.140625 0.921875
vt 0.093750 1.000000
vt 0.093750 0.921875
vt 0.140625 1.000000
vt 0.140625 0.921875
vt 0.093750 0.921875
vt 0.140625 0.921875
vt 0.093750 1.000000
vt 0.140625 1.000000
vt 0.093750 1.000000
vt 0.093750 0.921875
vt 0.140625 1.000000
vt 0.140625 0.921875
vt 0.093750 1.000000
vt 0.093750 0.921875
vt 0.140625 1.000000
vt 0.140625 0.921875
vn 1.0000 0.0000 0.0000
vn -1.0000 0.0000 0.0000
vn 0.0000 1.0000 0.0000
vn 0.0000 -1.0000 0.0000
vn 0.0000 -0.0000 1.0000
vn 0.0000 0.0000 -1.0000
usemtl m_0
s 1
f 25/63/18 26/64/18 27/65/18
f 26/64/18 28/66/18 27/65/18
f 29/67/19 30/68/19 31/69/19
f 30/68/19 32/70/19 31/69/19
f 29/67/20 31/71/20 27/65/20
f 31/71/20 25/72/20 27/65/20
f 32/73/21 30/68/21 26/74/21
f 30/68/21 28/66/21 26/74/21
f 31/75/22 32/76/22 25/77/22
f 32/76/22 26/78/22 25/77/22
f 27/79/23 28/80/23 29/81/23
f 28/80/23 30/82/23 29/81/23
o cube.004
v 0.125000 0.783327 0.305797
v 0.125000 0.563831 0.186124
v 0.125000 0.813245 0.250923
v 0.125000 0.593750 0.131250
v -0.125000 0.813245 0.250923
v -0.125000 0.593750 0.131250
v -0.125000 0.783327 0.305797
v -0.125000 0.563831 0.186124
vt 0.148438 0.757812
vt 0.148438 0.695312
vt 0.281250 0.757812
vt 0.281250 0.695312
vt 0.148438 0.757812
vt 0.148438 0.695312
vt 0.281250 0.757812
vt 0.281250 0.695312
vt 0.148438 0.695312
vt 0.281250 0.695312
vt 0.148438 0.757812
vt 0.281250 0.757812
vt 0.054688 0.914062
vt 0.054688 0.843750
vt 0.101562 0.914062
vt 0.101562 0.843750
vt 0.148438 0.757812
vt 0.148438 0.695312
vt 0.281250 0.757812
vt 0.281250 0.695312
vn 1.0000 0.0000 0.0000
vn -1.0000 0.0000 0.0000
vn 0.0000 0.8780 0.4787
vn 0.0000 -0.8780 -0.4787
vn 0.0000 -0.4787 0.8780
vn 0.0000 0.4787 -0.8780
usemtl m_0
s 1
f 33/83/24 34/84/24 35/85/24
f 34/84/24 36/86/24 35/85/24
f 37/87/25 38/88/25 39/89/25
f 38/88/25 40/90/25 39/89/25
f 37/87/26 39/91/26 35/85/26
f 39/91/26 33/92/26 35/85/26
f 40/93/27 38/88/27 34/94/27
f 38/88/27 36/86/27 34/94/27
f 39/95/28 40/96/28 33/97/28
f 40/96/28 34/98/28 33/97/28
f 35/99/29 36/100/29 37/101/29
f 36/100/29 38/102/29 37/101/29
o cube.001
v -0.250535 0.812265 0.125000
v -0.134228 0.598053 0.125000
v -0.250535 0.812265 -0.125000
v -0.134228 0.598053 -0.125000
v -0.305461 0.782443 -0.125000
v -0.189154 0.568231 -0.125000
v -0.305461 0.782443 0.125000
v -0.189154 0.568231 0.125000
vt 0.054688 0.914062
vt 0.054688 0.843750
vt 0.101562 0.914062
vt 0.101562 0.843750
vt 0.148438 0.757812
vt 0.148438 0.695312
vt 0.281250 0.757812
vt 0.281250 0.695312
vt 0.148438 0.757812
vt 0.148438 0.695312
vt 0.281250 0.757812
vt 0.281250 0.695312
vt 0.148438 0.757812
vt 0.148438 0.695312
vt 0.281250 0.757812
vt 0.281250 0.695312
vt 0.148438 0.757812
vt 0.148438 0.695312
vt 0.281250 0.757812
vt 0.281250 0.695312
vn -0.8788 -0.4772 0.0000
vn -0.4772 0.8788 0.0000
vn 0.4772 -0.8788 0.0000
vn 0.0000 -0.0000 1.0000
vn 0.0000 0.0000 -1.0000
usemtl m_0
s 1
f 45/103/30 46/104/30 47/105/30
f 46/104/30 48/106/30 47/105/30
f 45/107/31 47/108/31 43/109/31
f 47/108/31 41/110/31 43/109/31
f 48/111/32 46/112/32 42/113/32
f 46/112/32 44/114/32 42/113/32
f 47/115/33 48/116/33 41/117/33
f 48/116/33 42/118/33 41/117/33
f 43/119/34 44/120/34 45/121/34
f 44/120/34 46/122/34 45/121/34
o cube.006
v 0.187500 0.250000 0.187500
v 0.187500 0.125000 0.187500
v 0.187500 0.250000 -0.187500
v 0.187500 0.125000 -0.187500
v -0.187500 0.250000 -0.187500
v -0.187500 0.125000 -0.187500
v -0.187500 0.250000 0.187500
v -0.187500 0.125000 0.187500
vt 0.109375 0.914062
vt 0.109375 0.867188
vt 0.187500 0.914062
vt 0.187500 0.867188
vt 0.109375 0.914062
vt 0.109375 0.867188
vt 0.187500 0.914062
vt 0.187500 0.867188
vt 0.007812 0.835938
vt 0.007812 0.695312
vt 0.140625 0.835938
vt 0.140625 0.695312
vt 0.148438 0.828125
vt 0.148438 0.695312
vt 0.281250 0.828125
vt 0.281250 0.695312
vt 0.109375 0.914062
vt 0.109375 0.867188
vt 0.187500 0.914062
vt 0.187500 0.867188
vt 0.109375 0.914062
vt 0.109375 0.867188
vt 0.187500 0.914062
vt 0.187500 0.867188
vn 1.0000 0.0000 0.0000
vn -1.0000 0.0000 0.0000
vn 0.0000 1.0000 0.0000
vn 0.0000 -1.0000 -0.0000
vn 0.0000 -0.0000 1.0000
vn 0.0000 0.0000 -1.0000
usemtl m_0
s 1
f 49/123/35 50/124/35 51/125/35
f 50/124/35 52/126/35 51/125/35
f 53/127/36 54/128/36 55/129/36
f 54/128/36 56/130/36 55/129/36
f 53/131/37 55/132/37 51/133/37
f 55/132/37 49/134/37 51/133/37
f 56/135/38 54/136/38 50/137/38
f 54/136/38 52/138/38 50/137/38
f 55/139/39 56/140/39 49/141/39
f 56/140/39 50/142/39 49/141/39
f 51/143/40 52/144/40 53/145/40
f 52/144/40 54/146/40 53/145/40
o cube.009
v 0.125000 0.214835 -0.131848
v 0.125000 0.000623 -0.248156
v 0.125000 0.244657 -0.186774
v 0.125000 0.030446 -0.303082
v -0.125000 0.244657 -0.186774
v -0.125000 0.030446 -0.303082
v -0.125000 0.214835 -0.131848
v -0.125000 0.000623 -0.248156
vt 0.148438 0.757812
vt 0.148438 0.695312
vt 0.281250 0.757812
vt 0.281250 0.695312
vt 0.148438 0.757812
vt 0.148438 0.695312
vt 0.281250 0.757812
vt 0.281250 0.695312
vt 0.148438 0.695312
vt 0.281250 0.695312
vt 0.148438 0.757812
vt 0.281250 0.757812
vt 0.054688 0.914062
vt 0.054688 0.843750
vt 0.101562 0.914062
vt 0.101562 0.843750
vn 1.0000 0.0000 0.0000
vn -1.0000 0.0000 0.0000
vn 0.0000 0.8788 0.4772
vn 0.0000 -0.8788 -0.4772
vn 0.0000 0.4772 -0.8788
usemtl m_0
s 1
f 57/147/41 58/148/41 59/149/41
f 58/148/41 60/150/41 59/149/41
f 61/151/42 62/152/42 63/153/42
f 62/152/42 64/154/42 63/153/42
f 61/151/43 63/155/43 59/149/43
f 63/155/43 57/156/43 59/149/43
f 64/157/44 62/152/44 58/158/44
f 62/152/44 60/150/44 58/158/44
f 59/159/45 60/160/45 61/161/45
f 60/160/45 62/162/45 61/161/45
o cube.010
v -0.131848 0.214834 0.125000
v -0.248156 0.000623 0.125000
v -0.131848 0.214835 -0.125000
v -0.248156 0.000623 -0.125000
v -0.186774 0.244657 -0.125000
v -0.303082 0.030446 -0.125000
v -0.186774 0.244657 0.125000
v -0.303082 0.030445 0.125000
vt 0.054688 0.914062
vt 0.054688 0.843750
vt 0.101562 0.914062
vt 0.101562 0.843750
vt 0.148438 0.757812
vt 0.148438 0.695312
vt 0.281250 0.757812
vt 0.281250 0.695312
vt 0.148438 0.757812
vt 0.148438 0.695312
vt 0.281250 0.757812
vt 0.281250 0.695312
vt 0.148438 0.757812
vt 0.148438 0.695312
vt 0.281250 0.757812
vt 0.281250 0.695312
vt 0.148438 0.757812
vt 0.148438 0.695312
vt 0.281250 0.757812
vt 0.281250 0.695312
vn -0.8788 0.4772 0.0000
vn 0.4772 0.8788 0.0000
vn -0.4772 -0.8788 -0.0000
vn 0.0000 -0.0000 1.0000
vn 0.0000 0.0000 -1.0000
usemtl m_0
s 1
f 69/163/46 70/164/46 71/165/46
f 70/164/46 72/166/46 71/165/46
f 69/167/47 71/168/47 67/169/47
f 71/168/47 65/170/47 67/169/47
f 72/171/48 70/172/48 66/173/48
f 70/172/48 68/174/48 66/173/48
f 71/175/49 72/176/49 65/177/49
f 72/176/49 66/178/49 65/177/49
f 67/179/50 68/180/50 69/181/50
f 68/180/50 70/182/50 69/181/50
o cube.002
v 0.125000 0.812265 -0.250535
v 0.125000 0.598053 -0.134227
v 0.125000 0.782443 -0.305461
v 0.125000 0.568231 -0.189153
v -0.125000 0.782443 -0.305461
v -0.125000 0.568231 -0.189153
v -0.125000 0.812265 -0.250535
v -0.125000 0.598053 -0.134227
vt 0.148438 0.757812
vt 0.148438 0.695312
vt 0.281250 0.757812
vt 0.281250 0.695312
vt 0.148438 0.757812
vt 0.148438 0.695312
vt 0.281250 0.757812
vt 0.281250 0.695312
vt 0.148438 0.695312
vt 0.281250 0.695312
vt 0.148438 0.757812
vt 0.281250 0.757812
vt 0.054688 0.914062
vt 0.054688 0.843750
vt 0.101562 0.914062
vt 0.101562 0.843750
vn 1.0000 0.0000 0.0000
vn -1.0000 0.0000 0.0000
vn 0.0000 0.8788 -0.4772
vn 0.0000 -0.8788 0.4772
vn 0.0000 -0.4772 -0.8788
usemtl m_0
s 1
f 73/183/51 74/184/51 75/185/51
f 74/184/51 76/186/51 75/185/51
f 77/187/52 78/188/52 79/189/52
f 78/188/52 80/190/52 79/189/52
f 77/187/53 79/191/53 75/185/53
f 79/191/53 73/192/53 75/185/53
f 80/193/54 78/188/54 74/194/54
f 78/188/54 76/186/54 74/194/54
f 75/195/55 76/196/55 77/197/55
f 76/196/55 78/198/55 77/197/55
o cube.011
v 0.125000 0.562500 -0.124937
v 0.125000 0.250000 -0.124937
v 0.125000 0.562500 -0.125000
v 0.125000 0.250000 -0.125000
v -0.125000 0.562500 -0.125000
v -0.125000 0.250000 -0.125000
v -0.125000 0.562500 -0.124937
v -0.125000 0.250000 -0.124937
vt 0.093750 1.000000
vt 0.093750 0.921875
vt 0.140625 1.000000
vt 0.140625 0.921875
vt 0.093750 1.000000
vt 0.093750 0.921875
vt 0.140625 1.000000
vt 0.140625 0.921875
vt 0.093750 0.921875
vt 0.140625 0.921875
vt 0.093750 1.000000
vt 0.140625 1.000000
vt 0.093750 1.000000
vt 0.093750 0.921875
vt 0.140625 1.000000
vt 0.140625 0.921875
vt 0.093750 1.000000
vt 0.093750 0.921875
vt 0.140625 1.000000
vt 0.140625 0.921875
vn 1.0000 0.0000 0.0000
vn -1.0000 0.0000 0.0000
vn 0.0000 1.0000 0.0000
vn 0.0000 -1.0000 0.0000
vn 0.0000 -0.0000 1.0000
vn 0.0000 0.0000 -1.0000
usemtl m_0
s 1
f 81/199/56 82/200/56 83/201/56
f 82/200/56 84/202/56 83/201/56
f 85/203/57 86/204/57 87/205/57
f 86/204/57 88/206/57 87/205/57
f 85/203/58 87/207/58 83/201/58
f 87/207/58 81/208/58 83/201/58
f 88/209/59 86/204/59 82/210/59
f 86/204/59 84/202/59 82/210/59
f 87/211/60 88/212/60 81/213/60
f 88/212/60 82/214/60 81/213/60
f 83/215/61 84/216/61 85/217/61
f 84/216/61 86/218/61 85/217/61
o cube.005
v 0.250000 0.125000 0.250000
v 0.250000 -0.000000 0.250000
v 0.250000 0.125000 -0.250000
v 0.250000 0.000000 -0.250000
v -0.250000 0.125000 -0.250000
v -0.250000 0.000000 -0.250000
v -0.250000 0.125000 0.250000
v -0.250000 -0.000000 0.250000
vt 0.109375 0.914062
vt 0.109375 0.867188
vt 0.187500 0.914062
vt 0.187500 0.867188
vt 0.109375 0.914062
vt 0.109375 0.867188
vt 0.187500 0.914062
vt 0.187500 0.867188
vt 0.007812 0.835938
vt 0.007812 0.695312
vt 0.140625 0.835938
vt 0.140625 0.695312
vt 0.148438 0.835938
vt 0.148438 0.695312
vt 0.281250 0.835938
vt 0.281250 0.695312
vt 0.109375 0.914062
vt 0.109375 0.867188
vt 0.187500 0.914062
vt 0.187500 0.867188
vt 0.109375 0.914062
vt 0.109375 0.867188
vt 0.187500 0.914062
vt 0.187500 0.867188
vn 1.0000 0.0000 0.0000
vn -1.0000 0.0000 0.0000
vn 0.0000 1.0000 0.0000
vn 0.0000 -1.0000 -0.0000
vn 0.0000 -0.0000 1.0000
vn 0.0000 0.0000 -1.0000
usemtl m_0
s 1
f 89/219/62 90/220/62 91/221/62
f 90/220/62 92/222/62 91/221/62
f 93/223/63 94/224/63 95/225/63
f 94/224/63 96/226/63 95/225/63
f 93/227/64 95/228/64 91/229/64
f 95/228/64 89/230/64 91/229/64
f 96/231/65 94/232/65 90/233/65
f 94/232/65 92/234/65 90/233/65
f 95/235/66 96/236/66 89/237/66
f 96/236/66 90/238/66 89/237/66
f 91/239/67 92/240/67 93/241/67
f 92/240/67 94/242/67 93/241/67
o cube.000
v 0.250000 0.812500 0.250000
v 0.250000 0.687500 0.250000
v 0.250000 0.812500 -0.250000
v 0.250000 0.687500 -0.250000
v -0.250000 0.812500 -0.250000
v -0.250000 0.687500 -0.250000
v -0.250000 0.812500 0.250000
v -0.250000 0.687500 0.250000
vt 0.109375 0.914062
vt 0.109375 0.867188
vt 0.187500 0.914062
vt 0.187500 0.867188
vt 0.109375 0.914062
vt 0.109375 0.867188
vt 0.187500 0.914062
vt 0.187500 0.867188
vt 0.296875 0.835938
vt 0.296875 0.695312
vt 0.429688 0.835938
vt 0.429688 0.695312
vt 0.007812 0.835938
vt 0.007812 0.695312
vt 0.140625 0.835938
vt 0.140625 0.695312
vt 0.109375 0.914062
vt 0.109375 0.867188
vt 0.187500 0.914062
vt 0.187500 0.867188
vt 0.109375 0.914062
vt 0.109375 0.867188
vt 0.187500 0.914062
vt 0.187500 0.867188
vn 1.0000 0.0000 0.0000
vn -1.0000 0.0000 0.0000
vn 0.0000 1.0000 0.0000
vn 0.0000 -1.0000 -0.0000
vn 0.0000 0.0000 1.0000
vn 0.0000 0.0000 -1.0000
usemtl m_0
s 1
f 97/243/68 98/244/68 99/245/68
f 98/244/68 100/246/68 99/245/68
f 101/247/69 102/248/69 103/249/69
f 102/248/69 104/250/69 103/249/69
f 101/251/70 103/252/70 99/253/70
f 103/252/70 97/254/70 99/253/70
f 104/255/71 102/256/71 98/257/71
f 102/256/71 100/258/71 98/257/71
f 103/259/72 104/260/72 97/261/72
f 104/260/72 98/262/72 97/261/72
f 99/263/73 100/264/73 101/265/73
f 100/264/73 102/266/73 101/265/73
o cube.014
v 0.125062 0.562500 0.125000
v 0.125062 0.250000 0.125000
v 0.125062 0.562500 -0.125000
v 0.125062 0.250000 -0.125000
v 0.125000 0.562500 -0.125000
v 0.125000 0.250000 -0.125000
v 0.125000 0.562500 0.125000
v 0.125000 0.250000 0.125000
vt 0.093750 1.000000
vt 0.093750 0.921875
vt 0.140625 1.000000
vt 0.140625 0.921875
vt 0.093750 1.000000
vt 0.093750 0.921875
vt 0.140625 1.000000
vt 0.140625 0.921875
vt 0.093750 0.921875
vt 0.140625 0.921875
vt 0.093750 1.000000
vt 0.140625 1.000000
vt 0.093750 1.000000
vt 0.093750 0.921875
vt 0.140625 1.000000
vt 0.140625 0.921875
vt 0.093750 1.000000
vt 0.093750 0.921875
vt 0.140625 1.000000
vt 0.140625 0.921875
vn 1.0000 0.0000 0.0000
vn -1.0000 0.0000 0.0000
vn 0.0000 1.0000 0.0000
vn 0.0000 -1.0000 -0.0000
vn 0.0000 -0.0000 1.0000
vn 0.0000 0.0000 -1.0000
usemtl m_0
s 1
f 105/267/74 106/268/74 107/269/74
f 106/268/74 108/270/74 107/269/74
f 109/271/75 110/272/75 111/273/75
f 110/272/75 112/274/75 111/273/75
f 109/271/76 111/275/76 107/269/76
f 111/275/76 105/276/76 107/269/76
f 112/277/77 110/272/77 106/278/77
f 110/272/77 108/270/77 106/278/77
f 111/279/78 112/280/78 105/281/78
f 112/280/78 106/282/78 105/281/78
f 107/283/79 108/284/79 109/285/79
f 108/284/79 110/286/79 109/285/79
o cube
v 0.187500 0.687500 0.187500
v 0.187500 0.562500 0.187500
v 0.187500 0.687500 -0.187500
v 0.187500 0.562500 -0.187500
v -0.187500 0.687500 -0.187500
v -0.187500 0.562500 -0.187500
v -0.187500 0.687500 0.187500
v -0.187500 0.562500 0.187500
vt 0.109375 0.914062
vt 0.109375 0.867188
vt 0.187500 0.914062
vt 0.187500 0.867188
vt 0.109375 0.914062
vt 0.109375 0.867188
vt 0.187500 0.914062
vt 0.187500 0.867188
vt 0.148438 0.828125
vt 0.148438 0.695312
vt 0.281250 0.828125
vt 0.281250 0.695312
vt 0.007812 0.835938
vt 0.007812 0.695312
vt 0.140625 0.835938
vt 0.140625 0.695312
vt 0.109375 0.914062
vt 0.109375 0.867188
vt 0.187500 0.914062
vt 0.187500 0.867188
vt 0.109375 0.914062
vt 0.109375 0.867188
vt 0.187500 0.914062
vt 0.187500 0.867188
vn 1.0000 0.0000 0.0000
vn -1.0000 0.0000 0.0000
vn 0.0000 1.0000 0.0000
vn 0.0000 -1.0000 -0.0000
vn 0.0000 -0.0000 1.0000
vn 0.0000 0.0000 -1.0000
usemtl m_0
s 1
f 113/287/80 114/288/80 115/289/80
f 114/288/80 116/290/80 115/289/80
f 117/291/81 118/292/81 119/293/81
f 118/292/81 120/294/81 119/293/81
f 117/295/82 119/296/82 115/297/82
f 119/296/82 113/298/82 115/297/82
f 120/299/83 118/300/83 114/301/83
f 118/300/83 116/302/83 114/301/83
f 119/303/84 120/304/84 113/305/84
f 120/304/84 114/306/84 113/305/84
f 115/307/85 116/308/85 117/309/85
f 116/308/85 118/310/85 117/309/85
o cube.008
v 0.125000 0.249970 0.187380
v 0.125000 0.029438 0.305133
v 0.125000 0.220531 0.132247
v 0.125000 -0.000000 0.250000
v -0.125000 0.220531 0.132247
v -0.125000 -0.000000 0.250000
v -0.125000 0.249970 0.187380
v -0.125000 0.029438 0.305133
vt 0.148438 0.757812
vt 0.148438 0.695312
vt 0.281250 0.757812
vt 0.281250 0.695312
vt 0.148438 0.757812
vt 0.148438 0.695312
vt 0.281250 0.757812
vt 0.281250 0.695312
vt 0.148438 0.695312
vt 0.281250 0.695312
vt 0.148438 0.757812
vt 0.281250 0.757812
vt 0.054688 0.914062
vt 0.054688 0.843750
vt 0.101562 0.914062
vt 0.101562 0.843750
vn 1.0000 0.0000 0.0000
vn -1.0000 0.0000 0.0000
vn 0.0000 0.8821 -0.4710
vn 0.0000 -0.8821 0.4710
vn 0.0000 0.4710 0.8821
usemtl m_0
s 1
f 121/311/86 122/312/86 123/313/86
f 122/312/86 124/314/86 123/313/86
f 125/315/87 126/316/87 127/317/87
f 126/316/87 128/318/87 127/317/87
f 125/315/88 127/319/88 123/313/88
f 127/319/88 121/320/88 123/313/88
f 128/321/89 126/316/89 122/322/89
f 126/316/89 124/314/89 122/322/89
f 127/323/90 128/324/90 121/325/90
f 128/324/90 122/326/90 121/325/90
