# Blender v3.0.0 OBJ File: ''
# www.blender.org
mtllib oilrefiner.mtl
o cube.008
v 0.172023 0.793806 0.335352
v 0.219858 0.678321 0.335352
v 0.172023 0.793806 0.210352
v 0.219858 0.678321 0.210352
v 0.056538 0.745970 0.210352
v 0.104373 0.630486 0.210352
v 0.056538 0.745970 0.335352
v 0.104373 0.630486 0.335352
vt 0.078125 0.203125
vt 0.203125 0.203125
vt 0.078125 0.328125
vt 0.203125 0.328125
vt 0.078125 0.203125
vt 0.203125 0.203125
vt 0.078125 0.328125
vt 0.203125 0.328125
vt 0.078125 0.203125
vt 0.203125 0.203125
vt 0.078125 0.328125
vt 0.203125 0.328125
vt 0.078125 0.203125
vt 0.203125 0.203125
vt 0.078125 0.328125
vt 0.203125 0.328125
vn 0.9239 0.3827 0.0000
vn -0.9239 -0.3827 0.0000
vn 0.0000 -0.0000 1.0000
vn 0.0000 0.0000 -1.0000
usemtl m_0
s 1
f 1/1/1 2/2/1 3/3/1
f 2/2/1 4/4/1 3/3/1
f 5/5/2 6/6/2 7/7/2
f 6/6/2 8/8/2 7/7/2
f 7/9/3 8/10/3 1/11/3
f 8/10/3 2/12/3 1/11/3
f 3/13/4 4/14/4 5/15/4
f 4/14/4 6/16/4 5/15/4
o cube.012
v -0.153433 0.930030 0.335352
v -0.105598 0.814545 0.335352
v -0.153433 0.930030 0.210352
v -0.105598 0.814545 0.210352
v -0.268918 0.882194 0.210352
v -0.221082 0.766709 0.210352
v -0.268918 0.882194 0.335352
v -0.221082 0.766709 0.335352
vt 0.078125 0.203125
vt 0.203125 0.203125
vt 0.078125 0.328125
vt 0.203125 0.328125
vt 0.078125 0.203125
vt 0.203125 0.203125
vt 0.078125 0.328125
vt 0.203125 0.328125
vt 0.078125 0.203125
vt 0.203125 0.203125
vt 0.078125 0.328125
vt 0.203125 0.328125
vt 0.078125 0.203125
vt 0.203125 0.203125
vt 0.078125 0.328125
vt 0.203125 0.328125
vn -0.3827 0.9239 0.0000
vn 0.3827 -0.9239 0.0000
vn 0.0000 -0.0000 1.0000
vn 0.0000 0.0000 -1.0000
usemtl m_0
s 1
f 13/17/5 15/18/5 11/19/5
f 15/18/5 9/20/5 11/19/5
f 16/21/6 14/22/6 10/23/6
f 14/22/6 12/24/6 10/23/6
f 15/25/7 16/26/7 9/27/7
f 16/26/7 10/28/7 9/27/7
f 11/29/8 12/30/8 13/31/8
f 12/30/8 14/32/8 13/31/8
o cube.000
v 0.157358 0.490822 0.022852
v 0.157358 0.428322 0.022852
v 0.157358 0.490822 -0.477148
v 0.157358 0.428322 -0.477148
v -0.342642 0.490822 -0.477148
v -0.342642 0.428322 -0.477148
v -0.342642 0.490822 0.022852
v -0.342642 0.428322 0.022852
vt 0.500000 0.562500
vt 0.500000 0.500000
vt 0.875000 0.562500
vt 0.875000 0.500000
vt 0.500000 0.562500
vt 0.500000 0.500000
vt 0.875000 0.562500
vt 0.875000 0.500000
vt 0.234375 0.328125
vt 0.234375 0.234375
vt 0.328125 0.328125
vt 0.328125 0.234375
vt 0.234375 0.328125
vt 0.234375 0.234375
vt 0.328125 0.328125
vt 0.328125 0.234375
vt 0.500000 0.562500
vt 0.500000 0.500000
vt 0.875000 0.562500
vt 0.875000 0.500000
vt 0.500000 0.562500
vt 0.500000 0.500000
vt 0.875000 0.562500
vt 0.875000 0.500000
vn 1.0000 -0.0000 0.0000
vn -1.0000 -0.0000 0.0000
vn 0.0000 1.0000 0.0000
vn 0.0000 -1.0000 -0.0000
vn 0.0000 -0.0000 1.0000
vn 0.0000 0.0000 -1.0000
usemtl m_0
s 1
f 17/33/9 18/34/9 19/35/9
f 18/34/9 20/36/9 19/35/9
f 21/37/10 22/38/10 23/39/10
f 22/38/10 24/40/10 23/39/10
f 21/41/11 23/42/11 19/43/11
f 23/42/11 17/44/11 19/43/11
f 24/45/12 22/46/12 18/47/12
f 22/46/12 20/48/12 18/47/12
f 23/49/13 24/50/13 17/51/13
f 24/50/13 18/52/13 17/51/13
f 19/53/14 20/54/14 21/55/14
f 20/54/14 22/56/14 21/55/14
o cube.005
v -0.280142 0.678321 0.335352
v -0.280142 0.490821 0.335352
v -0.280142 0.678321 0.210352
v -0.280142 0.490821 0.210352
v -0.405142 0.678321 0.210352
v -0.405142 0.490821 0.210352
v -0.405142 0.678321 0.335352
v -0.405142 0.490821 0.335352
vt 0.078125 0.203125
vt 0.203125 0.203125
vt 0.078125 0.328125
vt 0.203125 0.328125
vt 0.078125 0.203125
vt 0.203125 0.203125
vt 0.078125 0.328125
vt 0.203125 0.328125
vt 0.078125 0.203125
vt 0.203125 0.203125
vt 0.078125 0.328125
vt 0.203125 0.328125
vt 0.078125 0.203125
vt 0.203125 0.203125
vt 0.078125 0.328125
vt 0.203125 0.328125
vn 1.0000 0.0000 0.0000
vn -1.0000 0.0000 0.0000
vn 0.0000 -0.0000 1.0000
vn 0.0000 0.0000 -1.0000
usemtl m_0
s 1
f 25/57/15 26/58/15 27/59/15
f 26/58/15 28/60/15 27/59/15
f 29/61/16 30/62/16 31/63/16
f 30/62/16 32/64/16 31/63/16
f 31/65/17 32/66/17 25/67/17
f 32/66/17 26/68/17 25/67/17
f 27/69/18 28/70/18 29/71/18
f 28/70/18 30/72/18 29/71/18
o cube.001
v -0.092642 0.490821 0.522852
v -0.092642 0.428321 0.522852
v -0.092642 0.490822 0.022852
v -0.092642 0.428322 0.022852
v -0.592642 0.490822 0.022852
v -0.592642 0.428322 0.022852
v -0.592642 0.490821 0.522852
v -0.592642 0.428321 0.522852
vt 0.500000 0.437500
vt 0.500000 0.375000
vt 0.875000 0.437500
vt 0.875000 0.375000
vt 0.500000 0.437500
vt 0.500000 0.375000
vt 0.875000 0.437500
vt 0.875000 0.375000
vt 0.234375 0.328125
vt 0.234375 0.234375
vt 0.328125 0.328125
vt 0.328125 0.234375
vt 0.234375 0.328125
vt 0.234375 0.234375
vt 0.328125 0.328125
vt 0.328125 0.234375
vt 0.500000 0.437500
vt 0.500000 0.375000
vt 0.875000 0.437500
vt 0.875000 0.375000
vt 0.500000 0.437500
vt 0.500000 0.375000
vt 0.875000 0.437500
vt 0.875000 0.375000
vn 1.0000 0.0000 0.0000
vn -1.0000 0.0000 0.0000
vn 0.0000 1.0000 0.0000
vn 0.0000 -1.0000 -0.0000
vn 0.0000 0.0000 1.0000
vn 0.0000 0.0000 -1.0000
usemtl m_0
s 1
f 33/73/19 34/74/19 35/75/19
f 34/74/19 36/76/19 35/75/19
f 37/77/20 38/78/20 39/79/20
f 38/78/20 40/80/20 39/79/20
f 37/81/21 39/82/21 35/83/21
f 39/82/21 33/84/21 35/83/21
f 40/85/22 38/86/22 34/87/22
f 38/86/22 36/88/22 34/87/22
f 39/89/23 40/90/23 33/91/23
f 40/90/23 34/92/23 33/91/23
f 35/93/24 36/94/24 37/95/24
f 36/94/24 38/96/24 37/95/24
o cube.003
v -0.030142 0.678321 -0.164648
v -0.030142 0.490822 -0.164648
v -0.030142 0.678322 -0.289648
v -0.030142 0.490822 -0.289648
v -0.155142 0.678322 -0.289648
v -0.155142 0.490822 -0.289648
v -0.155142 0.678321 -0.164648
v -0.155142 0.490822 -0.164648
vt 0.078125 0.203125
vt 0.203125 0.203125
vt 0.078125 0.328125
vt 0.203125 0.328125
vt 0.078125 0.203125
vt 0.203125 0.203125
vt 0.078125 0.328125
vt 0.203125 0.328125
vt 0.078125 0.203125
vt 0.203125 0.203125
vt 0.078125 0.328125
vt 0.203125 0.328125
vt 0.078125 0.203125
vt 0.203125 0.203125
vt 0.078125 0.328125
vt 0.203125 0.328125
vn 1.0000 0.0000 0.0000
vn -1.0000 0.0000 0.0000
vn 0.0000 -0.0000 1.0000
vn 0.0000 0.0000 -1.0000
usemtl m_0
s 1
f 41/97/25 42/98/25 43/99/25
f 42/98/25 44/100/25 43/99/25
f 45/101/26 46/102/26 47/103/26
f 46/102/26 48/104/26 47/103/26
f 47/105/27 48/106/27 41/107/27
f 48/106/27 42/108/27 41/107/27
f 43/109/28 44/110/28 45/111/28
f 44/110/28 46/112/28 45/111/28
o cube.007
v -0.241821 0.745970 0.335352
v -0.289657 0.630486 0.335352
v -0.241821 0.745970 0.210352
v -0.289657 0.630486 0.210352
v -0.357307 0.793806 0.210352
v -0.405142 0.678321 0.210352
v -0.357307 0.793806 0.335352
v -0.405142 0.678321 0.335352
vt 0.078125 0.203125
vt 0.203125 0.203125
vt 0.078125 0.328125
vt 0.203125 0.328125
vt 0.078125 0.203125
vt 0.203125 0.203125
vt 0.078125 0.328125
vt 0.203125 0.328125
vt 0.078125 0.203125
vt 0.203125 0.203125
vt 0.078125 0.328125
vt 0.203125 0.328125
vt 0.078125 0.203125
vt 0.203125 0.203125
vt 0.078125 0.328125
vt 0.203125 0.328125
vn 0.9239 -0.3827 0.0000
vn -0.9239 0.3827 0.0000
vn 0.0000 0.0000 1.0000
vn 0.0000 0.0000 -1.0000
usemtl m_0
s 1
f 49/113/29 50/114/29 51/115/29
f 50/114/29 52/116/29 51/115/29
f 53/117/30 54/118/30 55/119/30
f 54/118/30 56/120/30 55/119/30
f 55/121/31 56/122/31 49/123/31
f 56/122/31 50/124/31 49/123/31
f 51/125/32 52/126/32 53/127/32
f 52/126/32 54/128/32 53/127/32
o cube.009
v -0.030142 0.793806 -0.065036
v -0.030142 0.705418 -0.153425
v -0.030142 0.882195 -0.153425
v -0.030142 0.793807 -0.241813
v -0.155142 0.882195 -0.153425
v -0.155142 0.793807 -0.241813
v -0.155142 0.793806 -0.065036
v -0.155142 0.705418 -0.153425
vt 0.078125 0.203125
vt 0.203125 0.203125
vt 0.078125 0.328125
vt 0.203125 0.328125
vt 0.078125 0.203125
vt 0.203125 0.203125
vt 0.078125 0.328125
vt 0.203125 0.328125
vt 0.078125 0.203125
vt 0.203125 0.203125
vt 0.078125 0.328125
vt 0.203125 0.328125
vt 0.078125 0.203125
vt 0.203125 0.203125
vt 0.078125 0.328125
vt 0.203125 0.328125
vn 1.0000 -0.0000 0.0000
vn -1.0000 0.0000 0.0000
vn 0.0000 -0.7071 0.7071
vn 0.0000 0.7071 -0.7071
usemtl m_0
s 1
f 57/129/33 58/130/33 59/131/33
f 58/130/33 60/132/33 59/131/33
f 61/133/34 62/134/34 63/135/34
f 62/134/34 64/136/34 63/135/34
f 63/137/35 64/138/35 57/139/35
f 64/138/35 58/140/35 57/139/35
f 59/141/36 60/142/36 61/143/36
f 60/142/36 62/144/36 61/143/36
o cube.011
v -0.180530 0.793806 0.335352
v -0.268918 0.705418 0.335352
v -0.180530 0.793806 0.210352
v -0.268918 0.705418 0.210352
v -0.268918 0.882194 0.210352
v -0.357307 0.793806 0.210352
v -0.268918 0.882194 0.335352
v -0.357307 0.793806 0.335352
vt 0.078125 0.203125
vt 0.203125 0.203125
vt 0.078125 0.328125
vt 0.203125 0.328125
vt 0.078125 0.203125
vt 0.203125 0.203125
vt 0.078125 0.328125
vt 0.203125 0.328125
vt 0.078125 0.203125
vt 0.203125 0.203125
vt 0.078125 0.328125
vt 0.203125 0.328125
vt 0.078125 0.203125
vt 0.203125 0.203125
vt 0.078125 0.328125
vt 0.203125 0.328125
vn 0.7071 -0.7071 0.0000
vn -0.7071 0.7071 0.0000
vn 0.0000 -0.0000 1.0000
vn 0.0000 0.0000 -1.0000
usemtl m_0
s 1
f 65/145/37 66/146/37 67/147/37
f 66/146/37 68/148/37 67/147/37
f 69/149/38 70/150/38 71/151/38
f 70/150/38 72/152/38 71/151/38
f 71/153/39 72/154/39 65/155/39
f 72/154/39 66/156/39 65/155/39
f 67/157/40 68/158/40 69/159/40
f 68/158/40 70/160/40 69/159/40
o CubeFront.001
v -0.092642 0.428321 0.522852
v -0.092642 -0.571679 0.522851
v -0.092642 0.428322 0.022852
v -0.092642 -0.571679 0.022851
v -0.592642 0.428322 0.022852
v -0.592642 -0.571679 0.022851
v -0.592642 0.428321 0.522852
v -0.592642 -0.571679 0.522851
vt 0.000000 0.625000
vt 0.000000 0.375000
vt 0.125000 0.625000
vt 0.125000 0.375000
vt 0.000000 0.625000
vt 0.000000 0.375000
vt 0.125000 0.625000
vt 0.125000 0.375000
vt 0.000000 0.625000
vt 0.000000 0.375000
vt 0.125000 0.625000
vt 0.125000 0.375000
vt 0.000000 0.625000
vt 0.000000 0.375000
vt 0.125000 0.625000
vt 0.125000 0.375000
vn 1.0000 0.0000 0.0000
vn -1.0000 0.0000 0.0000
vn 0.0000 -0.0000 1.0000
vn 0.0000 0.0000 -1.0000
usemtl m_0
s 1
f 73/161/41 74/162/41 75/163/41
f 74/162/41 76/164/41 75/163/41
f 77/165/42 78/166/42 79/167/42
f 78/166/42 80/168/42 79/167/42
f 79/169/43 80/170/43 73/171/43
f 80/170/43 74/172/43 73/171/43
f 75/173/44 76/174/44 77/175/44
f 76/174/44 78/176/44 77/175/44
o cube.004
v 0.219858 0.678321 0.335352
v 0.219858 0.490821 0.335352
v 0.219858 0.678321 0.210352
v 0.219858 0.490821 0.210352
v 0.094858 0.678321 0.210352
v 0.094858 0.490821 0.210352
v 0.094858 0.678321 0.335352
v 0.094858 0.490821 0.335352
vt 0.078125 0.203125
vt 0.203125 0.203125
vt 0.078125 0.328125
vt 0.203125 0.328125
vt 0.078125 0.203125
vt 0.203125 0.203125
vt 0.078125 0.328125
vt 0.203125 0.328125
vt 0.078125 0.203125
vt 0.203125 0.203125
vt 0.078125 0.328125
vt 0.203125 0.328125
vt 0.078125 0.203125
vt 0.203125 0.203125
vt 0.078125 0.328125
vt 0.203125 0.328125
vn 1.0000 0.0000 0.0000
vn -1.0000 0.0000 0.0000
vn 0.0000 -0.0000 1.0000
vn 0.0000 0.0000 -1.0000
usemtl m_0
s 1
f 81/177/45 82/178/45 83/179/45
f 82/178/45 84/180/45 83/179/45
f 85/181/46 86/182/46 87/183/46
f 86/182/46 88/184/46 87/183/46
f 87/185/47 88/186/47 81/187/47
f 88/186/47 82/188/47 81/187/47
f 83/189/48 84/190/48 85/191/48
f 84/190/48 86/192/48 85/191/48
o cube.010
v 0.083635 0.882194 0.335352
v 0.172023 0.793806 0.335352
v 0.083635 0.882194 0.210352
v 0.172023 0.793806 0.210352
v -0.004754 0.793806 0.210352
v 0.083635 0.705418 0.210352
v -0.004754 0.793806 0.335352
v 0.083635 0.705418 0.335352
vt 0.078125 0.203125
vt 0.203125 0.203125
vt 0.078125 0.328125
vt 0.203125 0.328125
vt 0.078125 0.203125
vt 0.203125 0.203125
vt 0.078125 0.328125
vt 0.203125 0.328125
vt 0.078125 0.203125
vt 0.203125 0.203125
vt 0.078125 0.328125
vt 0.203125 0.328125
vt 0.078125 0.203125
vt 0.203125 0.203125
vt 0.078125 0.328125
vt 0.203125 0.328125
vn 0.7071 0.7071 0.0000
vn -0.7071 -0.7071 0.0000
vn 0.0000 -0.0000 1.0000
vn 0.0000 0.0000 -1.0000
usemtl m_0
s 1
f 89/193/49 90/194/49 91/195/49
f 90/194/49 92/196/49 91/195/49
f 93/197/50 94/198/50 95/199/50
f 94/198/50 96/200/50 95/199/50
f 95/201/51 96/202/51 89/203/51
f 96/202/51 90/204/51 89/203/51
f 91/205/52 92/206/52 93/207/52
f 92/206/52 94/208/52 93/207/52
o cube.014
v -0.030142 0.930030 -0.037940
v -0.030142 0.814545 0.009896
v -0.030142 0.882195 -0.153425
v -0.030142 0.766710 -0.105589
v -0.155142 0.882195 -0.153425
v -0.155142 0.766710 -0.105589
v -0.155142 0.930030 -0.037940
v -0.155142 0.814545 0.009896
vt 0.078125 0.203125
vt 0.203125 0.203125
vt 0.078125 0.328125
vt 0.203125 0.328125
vt 0.078125 0.203125
vt 0.203125 0.203125
vt 0.078125 0.328125
vt 0.203125 0.328125
vt 0.203125 0.203125
vt 0.203125 0.328125
vt 0.078125 0.203125
vt 0.078125 0.328125
vn 1.0000 0.0000 0.0000
vn -1.0000 -0.0000 0.0000
vn 0.0000 0.9239 -0.3827
vn 0.0000 -0.9239 0.3827
usemtl m_0
s 1
f 97/209/53 98/210/53 99/211/53
f 98/210/53 100/212/53 99/211/53
f 101/213/54 102/214/54 103/215/54
f 102/214/54 104/216/54 103/215/54
f 101/213/55 103/217/55 99/211/55
f 103/217/55 97/218/55 99/211/55
f 104/219/56 102/214/56 98/220/56
f 102/214/56 100/212/56 98/220/56
o cube
v 0.407358 -0.571679 0.522851
v 0.407358 -0.634179 0.522851
v 0.407358 -0.571678 -0.477149
v 0.407358 -0.634178 -0.477149
v -0.592642 -0.571678 -0.477149
v -0.592642 -0.634178 -0.477149
v -0.592642 -0.571679 0.522851
v -0.592642 -0.634179 0.522851
vt 0.500000 0.312500
vt 0.500000 0.250000
vt 0.875000 0.312500
vt 0.875000 0.250000
vt 0.500000 0.312500
vt 0.500000 0.250000
vt 0.875000 0.312500
vt 0.875000 0.250000
vt 0.234375 0.328125
vt 0.234375 0.234375
vt 0.328125 0.328125
vt 0.328125 0.234375
vt 0.234375 0.328125
vt 0.234375 0.234375
vt 0.328125 0.328125
vt 0.328125 0.234375
vt 0.500000 0.312500
vt 0.500000 0.250000
vt 0.875000 0.312500
vt 0.875000 0.250000
vt 0.500000 0.312500
vt 0.500000 0.250000
vt 0.875000 0.312500
vt 0.875000 0.250000
vn 1.0000 0.0000 0.0000
vn -1.0000 0.0000 0.0000
vn 0.0000 1.0000 0.0000
vn 0.0000 -1.0000 -0.0000
vn 0.0000 0.0000 1.0000
vn 0.0000 0.0000 -1.0000
usemtl m_0
s 1
f 105/221/57 106/222/57 107/223/57
f 106/222/57 108/224/57 107/223/57
f 109/225/58 110/226/58 111/227/58
f 110/226/58 112/228/58 111/227/58
f 109/229/59 111/230/59 107/231/59
f 111/230/59 105/232/59 107/231/59
f 112/233/60 110/234/60 106/235/60
f 110/234/60 108/236/60 106/235/60
f 111/237/61 112/238/61 105/239/61
f 112/238/61 106/240/61 105/239/61
f 107/241/62 108/242/62 109/243/62
f 108/242/62 110/244/62 109/243/62
o cube.002
v 0.407358 0.490821 0.522852
v 0.407358 0.428321 0.522852
v 0.407358 0.490822 0.022852
v 0.407358 0.428322 0.022852
v -0.092642 0.490822 0.022852
v -0.092642 0.428322 0.022852
v -0.092642 0.490821 0.522852
v -0.092642 0.428321 0.522852
vt 0.500000 0.687500
vt 0.500000 0.625000
vt 0.875000 0.687500
vt 0.875000 0.625000
vt 0.500000 0.687500
vt 0.500000 0.625000
vt 0.875000 0.687500
vt 0.875000 0.625000
vt 0.234375 0.328125
vt 0.234375 0.234375
vt 0.328125 0.328125
vt 0.328125 0.234375
vt 0.500000 0.687500
vt 0.500000 0.625000
vt 0.875000 0.687500
vt 0.875000 0.625000
vt 0.500000 0.687500
vt 0.500000 0.625000
vt 0.875000 0.687500
vt 0.875000 0.625000
vn 1.0000 0.0000 0.0000
vn -1.0000 0.0000 0.0000
vn 0.0000 1.0000 0.0000
vn 0.0000 0.0000 1.0000
vn 0.0000 0.0000 -1.0000
usemtl m_0
s 1
f 113/245/63 114/246/63 115/247/63
f 114/246/63 116/248/63 115/247/63
f 117/249/64 118/250/64 119/251/64
f 118/250/64 120/252/64 119/251/64
f 117/253/65 119/254/65 115/255/65
f 119/254/65 113/256/65 115/255/65
f 119/257/66 120/258/66 113/259/66
f 120/258/66 114/260/66 113/259/66
f 115/261/67 116/262/67 117/263/67
f 116/262/67 118/264/67 117/263/67
o cube.013
v 0.083635 0.882194 0.335352
v 0.035799 0.766709 0.335352
v 0.083635 0.882194 0.210352
v 0.035799 0.766709 0.210352
v -0.031850 0.930030 0.210352
v -0.079686 0.814545 0.210352
v -0.031850 0.930030 0.335352
v -0.079686 0.814545 0.335352
vt 0.078125 0.203125
vt 0.203125 0.203125
vt 0.078125 0.328125
vt 0.203125 0.328125
vt 0.078125 0.203125
vt 0.203125 0.203125
vt 0.078125 0.328125
vt 0.203125 0.328125
vt 0.078125 0.203125
vt 0.203125 0.203125
vt 0.078125 0.328125
vt 0.203125 0.328125
vt 0.078125 0.203125
vt 0.203125 0.203125
vt 0.078125 0.328125
vt 0.203125 0.328125
vn 0.3827 0.9239 0.0000
vn -0.3827 -0.9239 0.0000
vn 0.0000 -0.0000 1.0000
vn 0.0000 0.0000 -1.0000
usemtl m_0
s 1
f 125/265/68 127/266/68 123/267/68
f 127/266/68 121/268/68 123/267/68
f 128/269/69 126/270/69 122/271/69
f 126/270/69 124/272/69 122/271/69
f 127/273/70 128/274/70 121/275/70
f 128/274/70 122/276/70 121/275/70
f 123/277/71 124/278/71 125/279/71
f 124/278/71 126/280/71 125/279/71
o cube.006
v -0.030142 0.745971 -0.126328
v -0.030142 0.630486 -0.174163
v -0.030142 0.793807 -0.241813
v -0.030142 0.678322 -0.289648
v -0.155142 0.793807 -0.241813
v -0.155142 0.678322 -0.289648
v -0.155142 0.745971 -0.126328
v -0.155142 0.630486 -0.174163
vt 0.078125 0.203125
vt 0.203125 0.203125
vt 0.078125 0.328125
vt 0.203125 0.328125
vt 0.078125 0.203125
vt 0.203125 0.203125
vt 0.078125 0.328125
vt 0.203125 0.328125
vt 0.078125 0.203125
vt 0.203125 0.203125
vt 0.078125 0.328125
vt 0.203125 0.328125
vt 0.078125 0.203125
vt 0.203125 0.203125
vt 0.078125 0.328125
vt 0.203125 0.328125
vn 1.0000 0.0000 0.0000
vn -1.0000 0.0000 0.0000
vn 0.0000 -0.3827 0.9239
vn 0.0000 0.3827 -0.9239
usemtl m_0
s 1
f 129/281/72 130/282/72 131/283/72
f 130/282/72 132/284/72 131/283/72
f 133/285/73 134/286/73 135/287/73
f 134/286/73 136/288/73 135/287/73
f 135/289/74 136/290/74 129/291/74
f 136/290/74 130/292/74 129/291/74
f 131/293/75 132/294/75 133/295/75
f 132/294/75 134/296/75 133/295/75
o cube.016
v -0.030142 0.930030 0.212060
v -0.030142 0.805030 0.212060
v -0.030142 0.930030 -0.037940
v -0.030142 0.805030 -0.037940
v -0.155142 0.930030 -0.037940
v -0.155142 0.805030 -0.037940
v -0.155142 0.930030 0.212060
v -0.155142 0.805030 0.212060
vt 0.078125 0.203125
vt 0.203125 0.203125
vt 0.078125 0.328125
vt 0.203125 0.328125
vt 0.078125 0.203125
vt 0.203125 0.203125
vt 0.078125 0.328125
vt 0.203125 0.328125
vt 0.203125 0.203125
vt 0.203125 0.328125
vt 0.078125 0.203125
vt 0.078125 0.328125
vn 1.0000 0.0000 0.0000
vn -1.0000 0.0000 0.0000
vn 0.0000 1.0000 0.0000
vn 0.0000 -1.0000 -0.0000
usemtl m_0
s 1
f 137/297/76 138/298/76 139/299/76
f 138/298/76 140/300/76 139/299/76
f 141/301/77 142/302/77 143/303/77
f 142/302/77 144/304/77 143/303/77
f 141/301/78 143/305/78 139/299/78
f 143/305/78 137/306/78 139/299/78
f 144/307/79 142/302/79 138/308/79
f 142/302/79 140/300/79 138/308/79
o cube.015
v -0.028433 0.930030 0.335352
v -0.028433 0.805030 0.335352
v -0.028433 0.930030 0.210352
v -0.028433 0.805030 0.210352
v -0.153433 0.930030 0.210352
v -0.153433 0.805030 0.210352
v -0.153433 0.930030 0.335352
v -0.153433 0.805030 0.335352
vt 0.078125 0.203125
vt 0.203125 0.203125
vt 0.078125 0.328125
vt 0.203125 0.328125
vt 0.078125 0.203125
vt 0.203125 0.203125
vt 0.078125 0.328125
vt 0.203125 0.328125
vt 0.078125 0.203125
vt 0.203125 0.203125
vt 0.078125 0.328125
vt 0.203125 0.328125
vt 0.078125 0.203125
vt 0.203125 0.203125
vt 0.078125 0.328125
vt 0.203125 0.328125
vn 0.0000 1.0000 0.0000
vn 0.0000 -1.0000 0.0000
vn 0.0000 -0.0000 1.0000
vn 0.0000 0.0000 -1.0000
usemtl m_0
s 1
f 149/309/80 151/310/80 147/311/80
f 151/310/80 145/312/80 147/311/80
f 152/313/81 150/314/81 146/315/81
f 150/314/81 148/316/81 146/315/81
f 151/317/82 152/318/82 145/319/82
f 152/318/82 146/320/82 145/319/82
f 147/321/83 148/322/83 149/323/83
f 148/322/83 150/324/83 149/323/83
o CubeFront.000
v 0.407358 0.428321 0.522852
v 0.407358 -0.571679 0.522851
v 0.407358 0.428322 0.022852
v 0.407358 -0.571679 0.022851
v -0.092642 0.428322 0.022852
v -0.092642 -0.571679 0.022851
v -0.092642 0.428321 0.522852
v -0.092642 -0.571679 0.522851
vt 0.000000 0.625000
vt 0.000000 0.375000
vt 0.125000 0.625000
vt 0.125000 0.375000
vt 0.000000 0.625000
vt 0.000000 0.375000
vt 0.125000 0.625000
vt 0.125000 0.375000
vt 0.125000 0.750000
vt 0.250000 0.750000
vt 0.250000 0.625000
vt 0.125000 0.750000
vt 0.125000 0.625000
vt 0.250000 0.750000
vt 0.250000 0.625000
vt 0.000000 0.625000
vt 0.000000 0.375000
vt 0.125000 0.625000
vt 0.125000 0.375000
vt 0.000000 0.625000
vt 0.000000 0.375000
vt 0.125000 0.625000
vt 0.125000 0.375000
vn 1.0000 0.0000 0.0000
vn -1.0000 -0.0000 0.0000
vn 0.0000 1.0000 0.0000
vn 0.0000 -1.0000 -0.0000
vn 0.0000 -0.0000 1.0000
vn 0.0000 0.0000 -1.0000
usemtl m_0
s 1
f 153/325/84 154/326/84 155/327/84
f 154/326/84 156/328/84 155/327/84
f 157/329/85 158/330/85 159/331/85
f 158/330/85 160/332/85 159/331/85
f 157/333/86 159/331/86 155/334/86
f 159/331/86 153/335/86 155/334/86
f 160/336/87 158/337/87 154/338/87
f 158/337/87 156/339/87 154/338/87
f 159/340/88 160/341/88 153/342/88
f 160/341/88 154/343/88 153/342/88
f 155/344/89 156/345/89 157/346/89
f 156/345/89 158/347/89 157/346/89
o CubeFront
v 0.157358 0.428322 0.022852
v 0.157358 -0.571679 0.022851
v 0.157358 0.428322 -0.477148
v 0.157358 -0.571678 -0.477149
v -0.342642 0.428322 -0.477148
v -0.342642 -0.571678 -0.477149
v -0.342642 0.428322 0.022852
v -0.342642 -0.571679 0.022851
vt 0.000000 0.625000
vt 0.000000 0.375000
vt 0.125000 0.625000
vt 0.125000 0.375000
vt 0.000000 0.625000
vt 0.000000 0.375000
vt 0.125000 0.625000
vt 0.125000 0.375000
vt 0.125000 0.750000
vt 0.250000 0.750000
vt 0.250000 0.625000
vt 0.125000 0.750000
vt 0.125000 0.625000
vt 0.250000 0.750000
vt 0.250000 0.625000
vt 0.000000 0.625000
vt 0.000000 0.375000
vt 0.125000 0.625000
vt 0.125000 0.375000
vt 0.000000 0.625000
vt 0.000000 0.375000
vt 0.125000 0.625000
vt 0.125000 0.375000
vn 1.0000 0.0000 0.0000
vn -1.0000 0.0000 0.0000
vn 0.0000 1.0000 0.0000
vn 0.0000 -1.0000 -0.0000
vn 0.0000 -0.0000 1.0000
vn 0.0000 0.0000 -1.0000
usemtl m_0
s 1
f 161/348/90 162/349/90 163/350/90
f 162/349/90 164/351/90 163/350/90
f 165/352/91 166/353/91 167/354/91
f 166/353/91 168/355/91 167/354/91
f 165/356/92 167/354/92 163/357/92
f 167/354/92 161/358/92 163/357/92
f 168/359/93 166/360/93 162/361/93
f 166/360/93 164/362/93 162/361/93
f 167/363/94 168/364/94 161/365/94
f 168/364/94 162/366/94 161/365/94
f 163/367/95 164/368/95 165/369/95
f 164/368/95 166/370/95 165/369/95
