# Blender v2.79 (sub 0) OBJ File: ''
# www.blender.org
mtllib tank.mtl
o cube.002_cube.019
v 0.157358 -0.559178 0.022852
v 0.157358 -0.621678 0.022852
v 0.157358 -0.559178 -0.477148
v 0.157358 -0.621678 -0.477148
v -0.342642 -0.559178 -0.477148
v -0.342642 -0.621678 -0.477148
v -0.342642 -0.559178 0.022852
v -0.342642 -0.621678 0.022852
vt 0.500000 0.562500
vt 0.500000 0.500000
vt 0.875000 0.562500
vt 0.875000 0.500000
vt 0.500000 0.562500
vt 0.500000 0.500000
vt 0.875000 0.562500
vt 0.875000 0.500000
vt 0.234375 0.328125
vt 0.234375 0.234375
vt 0.328125 0.328125
vt 0.328125 0.234375
vt 0.234375 0.328125
vt 0.234375 0.234375
vt 0.328125 0.328125
vt 0.328125 0.234375
vt 0.500000 0.562500
vt 0.500000 0.500000
vt 0.875000 0.562500
vt 0.875000 0.500000
vt 0.500000 0.562500
vt 0.500000 0.500000
vt 0.875000 0.562500
vt 0.875000 0.500000
vn 1.0000 -0.0000 0.0000
vn -1.0000 -0.0000 0.0000
vn 0.0000 1.0000 0.0000
vn 0.0000 -1.0000 -0.0000
vn 0.0000 -0.0000 1.0000
vn 0.0000 0.0000 -1.0000
usemtl m_0
s 1
f 1/1/1 2/2/1 3/3/1
f 2/2/1 4/4/1 3/3/1
f 5/5/2 6/6/2 7/7/2
f 6/6/2 8/8/2 7/7/2
f 5/9/3 7/10/3 3/11/3
f 7/10/3 1/12/3 3/11/3
f 8/13/4 6/14/4 2/15/4
f 6/14/4 4/16/4 2/15/4
f 7/17/5 8/18/5 1/19/5
f 8/18/5 2/20/5 1/19/5
f 3/21/6 4/22/6 5/23/6
f 4/22/6 6/24/6 5/23/6
o cube.000
v 0.157358 0.490822 0.022852
v 0.157358 0.428322 0.022852
v 0.157358 0.490822 -0.477148
v 0.157358 0.428322 -0.477148
v -0.342642 0.490822 -0.477148
v -0.342642 0.428322 -0.477148
v -0.342642 0.490822 0.022852
v -0.342642 0.428322 0.022852
vt 0.500000 0.562500
vt 0.500000 0.500000
vt 0.875000 0.562500
vt 0.875000 0.500000
vt 0.500000 0.562500
vt 0.500000 0.500000
vt 0.875000 0.562500
vt 0.875000 0.500000
vt 0.234375 0.328125
vt 0.234375 0.234375
vt 0.328125 0.328125
vt 0.328125 0.234375
vt 0.234375 0.328125
vt 0.234375 0.234375
vt 0.328125 0.328125
vt 0.328125 0.234375
vt 0.500000 0.562500
vt 0.500000 0.500000
vt 0.875000 0.562500
vt 0.875000 0.500000
vt 0.500000 0.562500
vt 0.500000 0.500000
vt 0.875000 0.562500
vt 0.875000 0.500000
vn 1.0000 -0.0000 0.0000
vn -1.0000 -0.0000 0.0000
vn 0.0000 1.0000 0.0000
vn 0.0000 -1.0000 -0.0000
vn 0.0000 -0.0000 1.0000
vn 0.0000 0.0000 -1.0000
usemtl m_0
s 1
f 9/25/7 10/26/7 11/27/7
f 10/26/7 12/28/7 11/27/7
f 13/29/8 14/30/8 15/31/8
f 14/30/8 16/32/8 15/31/8
f 13/33/9 15/34/9 11/35/9
f 15/34/9 9/36/9 11/35/9
f 16/37/10 14/38/10 10/39/10
f 14/38/10 12/40/10 10/39/10
f 15/41/11 16/42/11 9/43/11
f 16/42/11 10/44/11 9/43/11
f 11/45/12 12/46/12 13/47/12
f 12/46/12 14/48/12 13/47/12
o CubeFront
v 0.157358 0.428322 0.022852
v 0.157358 -0.571679 0.022851
v 0.157358 0.428322 -0.477148
v 0.157358 -0.571678 -0.477149
v -0.342642 0.428322 -0.477148
v -0.342642 -0.571678 -0.477149
v -0.342642 0.428322 0.022852
v -0.342642 -0.571679 0.022851
vt 0.000000 0.625000
vt 0.000000 0.375000
vt 0.125000 0.625000
vt 0.125000 0.375000
vt 0.000000 0.625000
vt 0.000000 0.375000
vt 0.125000 0.625000
vt 0.125000 0.375000
vt 0.125000 0.750000
vt 0.250000 0.750000
vt 0.250000 0.625000
vt 0.125000 0.750000
vt 0.125000 0.625000
vt 0.250000 0.750000
vt 0.250000 0.625000
vt 0.000000 0.625000
vt 0.000000 0.375000
vt 0.125000 0.625000
vt 0.125000 0.375000
vt 0.000000 0.625000
vt 0.000000 0.375000
vt 0.125000 0.625000
vt 0.125000 0.375000
vn 1.0000 0.0000 0.0000
vn -1.0000 0.0000 0.0000
vn 0.0000 1.0000 0.0000
vn 0.0000 -1.0000 -0.0000
vn 0.0000 -0.0000 1.0000
vn 0.0000 0.0000 -1.0000
usemtl m_0
s 1
f 17/49/13 18/50/13 19/51/13
f 18/50/13 20/52/13 19/51/13
f 21/53/14 22/54/14 23/55/14
f 22/54/14 24/56/14 23/55/14
f 21/57/15 23/55/15 19/58/15
f 23/55/15 17/59/15 19/58/15
f 24/60/16 22/61/16 18/62/16
f 22/61/16 20/63/16 18/62/16
f 23/64/17 24/65/17 17/66/17
f 24/65/17 18/67/17 17/66/17
f 19/68/18 20/69/18 21/70/18
f 20/69/18 22/71/18 21/70/18
