# Blender v3.0.0 OBJ File: ''
# www.blender.org
mtllib qg.mtl
o cube
v -0.437500 -0.437500 0.500000
v -0.437500 -0.500000 0.500000
v -0.437500 -0.437500 -0.500000
v -0.437500 -0.500000 -0.500000
v -0.500000 -0.437500 -0.500000
v -0.500000 -0.500000 -0.500000
v -0.500000 -0.437500 0.500000
v -0.500000 -0.500000 0.500000
vt 0.000000 1.000000
vt 0.000000 0.937500
vt 1.000000 1.000000
vt 1.000000 0.937500
vt 0.000000 1.000000
vt 0.000000 0.937500
vt 1.000000 1.000000
vt 1.000000 0.937500
vt 0.000000 0.000000
vt 0.062500 1.000000
vt 0.062500 0.000000
vt 0.000000 1.000000
vt 0.000000 0.000000
vt 0.062500 1.000000
vt 0.062500 0.000000
vt 0.000000 1.000000
vt 0.000000 0.937500
vt 0.062500 1.000000
vt 0.062500 0.937500
vt 0.000000 1.000000
vt 0.000000 0.937500
vt 0.062500 1.000000
vt 0.062500 0.937500
vn 1.0000 0.0000 0.0000
vn -1.0000 0.0000 0.0000
vn 0.0000 1.0000 0.0000
vn 0.0000 -1.0000 -0.0000
vn 0.0000 -0.0000 1.0000
vn 0.0000 0.0000 -1.0000
usemtl m_0
s 1
f 1/1/1 2/2/1 3/3/1
f 2/2/1 4/4/1 3/3/1
f 5/5/2 6/6/2 7/7/2
f 6/6/2 8/8/2 7/7/2
f 5/5/3 7/9/3 3/10/3
f 7/9/3 1/11/3 3/10/3
f 8/12/4 6/13/4 2/14/4
f 6/13/4 4/15/4 2/14/4
f 7/16/5 8/17/5 1/18/5
f 8/17/5 2/19/5 1/18/5
f 3/20/6 4/21/6 5/22/6
f 4/21/6 6/23/6 5/22/6
o cube.000
v 0.500000 -0.437500 0.500000
v 0.500000 -0.500000 0.500000
v 0.500000 -0.437500 -0.500000
v 0.500000 -0.500000 -0.500000
v 0.437500 -0.437500 -0.500000
v 0.437500 -0.500000 -0.500000
v 0.437500 -0.437500 0.500000
v 0.437500 -0.500000 0.500000
vt 0.000000 1.000000
vt 0.000000 0.937500
vt 1.000000 1.000000
vt 1.000000 0.937500
vt 0.000000 1.000000
vt 0.000000 0.937500
vt 1.000000 1.000000
vt 1.000000 0.937500
vt 0.000000 0.000000
vt 0.062500 1.000000
vt 0.062500 0.000000
vt 0.000000 1.000000
vt 0.000000 0.000000
vt 0.062500 1.000000
vt 0.062500 0.000000
vt 0.000000 1.000000
vt 0.000000 0.937500
vt 0.062500 1.000000
vt 0.062500 0.937500
vt 0.000000 1.000000
vt 0.000000 0.937500
vt 0.062500 1.000000
vt 0.062500 0.937500
vn 1.0000 0.0000 0.0000
vn -1.0000 0.0000 0.0000
vn 0.0000 1.0000 0.0000
vn 0.0000 -1.0000 -0.0000
vn 0.0000 -0.0000 1.0000
vn 0.0000 0.0000 -1.0000
usemtl m_0
s 1
f 9/24/7 10/25/7 11/26/7
f 10/25/7 12/27/7 11/26/7
f 13/28/8 14/29/8 15/30/8
f 14/29/8 16/31/8 15/30/8
f 13/28/9 15/32/9 11/33/9
f 15/32/9 9/34/9 11/33/9
f 16/35/10 14/36/10 10/37/10
f 14/36/10 12/38/10 10/37/10
f 15/39/11 16/40/11 9/41/11
f 16/40/11 10/42/11 9/41/11
f 11/43/12 12/44/12 13/45/12
f 12/44/12 14/46/12 13/45/12
o cube.001
v 0.437500 -0.437500 0.500000
v 0.437500 -0.500000 0.500000
v 0.437500 -0.437500 0.437500
v 0.437500 -0.500000 0.437500
v -0.437500 -0.437500 0.437500
v -0.437500 -0.500000 0.437500
v -0.437500 -0.437500 0.500000
v -0.437500 -0.500000 0.500000
vt 0.000000 1.000000
vt 0.000000 0.937500
vt 0.062500 1.000000
vt 0.062500 0.937500
vt 0.000000 1.000000
vt 0.000000 0.937500
vt 0.062500 1.000000
vt 0.062500 0.937500
vt 0.000000 0.937500
vt 0.875000 1.000000
vt 0.875000 0.937500
vt 0.000000 1.000000
vt 0.875000 1.000000
vt 0.875000 0.937500
vt 0.000000 1.000000
vt 0.000000 0.937500
vt 0.875000 1.000000
vt 0.875000 0.937500
vt 0.000000 1.000000
vt 0.000000 0.937500
vt 0.062500 1.000000
vt 0.062500 0.937500
vn 1.0000 0.0000 0.0000
vn -1.0000 0.0000 0.0000
vn 0.0000 1.0000 0.0000
vn 0.0000 -1.0000 0.0000
vn 0.0000 -0.0000 1.0000
vn 0.0000 0.0000 -1.0000
usemtl m_0
s 1
f 17/47/13 18/48/13 19/49/13
f 18/48/13 20/50/13 19/49/13
f 21/51/14 22/52/14 23/53/14
f 22/52/14 24/54/14 23/53/14
f 21/51/15 23/55/15 19/56/15
f 23/55/15 17/57/15 19/56/15
f 24/58/16 22/52/16 18/59/16
f 22/52/16 20/60/16 18/59/16
f 23/61/17 24/62/17 17/63/17
f 24/62/17 18/64/17 17/63/17
f 19/65/18 20/66/18 21/67/18
f 20/66/18 22/68/18 21/67/18
o cube.002
v 0.437500 -0.437500 -0.437500
v 0.437500 -0.500000 -0.437500
v 0.437500 -0.437500 -0.500000
v 0.437500 -0.500000 -0.500000
v -0.437500 -0.437500 -0.500000
v -0.437500 -0.500000 -0.500000
v -0.437500 -0.437500 -0.437500
v -0.437500 -0.500000 -0.437500
vt 0.000000 1.000000
vt 0.000000 0.937500
vt 0.062500 1.000000
vt 0.062500 0.937500
vt 0.000000 1.000000
vt 0.000000 0.937500
vt 0.062500 1.000000
vt 0.062500 0.937500
vt 0.000000 0.937500
vt 0.875000 1.000000
vt 0.875000 0.937500
vt 0.000000 1.000000
vt 0.875000 1.000000
vt 0.875000 0.937500
vt 0.000000 1.000000
vt 0.000000 0.937500
vt 0.875000 1.000000
vt 0.875000 0.937500
vt 0.000000 1.000000
vt 0.000000 0.937500
vt 0.062500 1.000000
vt 0.062500 0.937500
vn 1.0000 0.0000 0.0000
vn -1.0000 0.0000 0.0000
vn 0.0000 1.0000 0.0000
vn 0.0000 -1.0000 0.0000
vn 0.0000 -0.0000 1.0000
vn 0.0000 0.0000 -1.0000
usemtl m_0
s 1
f 25/69/19 26/70/19 27/71/19
f 26/70/19 28/72/19 27/71/19
f 29/73/20 30/74/20 31/75/20
f 30/74/20 32/76/20 31/75/20
f 29/73/21 31/77/21 27/78/21
f 31/77/21 25/79/21 27/78/21
f 32/80/22 30/74/22 26/81/22
f 30/74/22 28/82/22 26/81/22
f 31/83/23 32/84/23 25/85/23
f 32/84/23 26/86/23 25/85/23
f 27/87/24 28/88/24 29/89/24
f 28/88/24 30/90/24 29/89/24
o cube.003
v 0.437500 0.437500 0.437500
v 0.437500 -0.437500 0.437500
v 0.437500 0.437500 -0.437500
v 0.437500 -0.437500 -0.437500
v -0.437500 0.437500 -0.437500
v -0.437500 -0.437500 -0.437500
v -0.437500 0.437500 0.437500
v -0.437500 -0.437500 0.437500
vt 0.000000 1.000000
vt 0.000000 0.000000
vt 1.000000 1.000000
vt 1.000000 0.000000
vt 0.000000 1.000000
vt 0.000000 0.000000
vt 1.000000 1.000000
vt 1.000000 0.000000
vt 0.000000 0.000000
vt 1.000000 0.000000
vt 0.000000 1.000000
vt 1.000000 1.000000
vt 0.000000 1.000000
vt 0.000000 0.000000
vt 1.000000 1.000000
vt 1.000000 0.000000
vt 0.000000 1.000000
vt 0.000000 0.000000
vt 1.000000 1.000000
vt 1.000000 0.000000
vn 1.0000 0.0000 0.0000
vn -1.0000 0.0000 0.0000
vn 0.0000 1.0000 0.0000
vn 0.0000 -1.0000 -0.0000
vn 0.0000 -0.0000 1.0000
vn 0.0000 0.0000 -1.0000
usemtl m_0
s 1
f 33/91/25 34/92/25 35/93/25
f 34/92/25 36/94/25 35/93/25
f 37/95/26 38/96/26 39/97/26
f 38/96/26 40/98/26 39/97/26
f 37/95/27 39/99/27 35/93/27
f 39/99/27 33/100/27 35/93/27
f 40/101/28 38/96/28 34/102/28
f 38/96/28 36/94/28 34/102/28
f 39/103/29 40/104/29 33/105/29
f 40/104/29 34/106/29 33/105/29
f 35/107/30 36/108/30 37/109/30
f 36/108/30 38/110/30 37/109/30
o cube.004
v 0.500000 0.437500 -0.437500
v 0.500000 -0.437500 -0.437500
v 0.500000 0.437500 -0.500000
v 0.500000 -0.437500 -0.500000
v 0.437500 0.437500 -0.500000
v 0.437500 -0.437500 -0.500000
v 0.437500 0.437500 -0.437500
v 0.437500 -0.437500 -0.437500
vt 0.000000 1.000000
vt 0.000000 0.125000
vt 0.062500 1.000000
vt 0.062500 0.125000
vt 0.000000 1.000000
vt 0.000000 0.125000
vt 0.062500 1.000000
vt 0.062500 0.125000
vt 0.000000 0.937500
vt 0.062500 0.937500
vt 0.000000 1.000000
vt 0.000000 0.937500
vt 0.062500 1.000000
vt 0.062500 0.937500
vt 0.000000 1.000000
vt 0.000000 0.125000
vt 0.062500 1.000000
vt 0.062500 0.125000
vt 0.000000 1.000000
vt 0.000000 0.937500
vt 0.062500 1.000000
vt 0.062500 0.937500
vn 1.0000 0.0000 0.0000
vn -1.0000 0.0000 0.0000
vn 0.0000 1.0000 0.0000
vn 0.0000 -1.0000 0.0000
vn 0.0000 -0.0000 1.0000
vn 0.0000 0.0000 -1.0000
usemtl m_0
s 1
f 41/111/31 42/112/31 43/113/31
f 42/112/31 44/114/31 43/113/31
f 45/115/32 46/116/32 47/117/32
f 46/116/32 48/118/32 47/117/32
f 45/115/33 47/119/33 43/113/33
f 47/119/33 41/120/33 43/113/33
f 48/121/34 46/122/34 42/123/34
f 46/122/34 44/124/34 42/123/34
f 47/125/35 48/126/35 41/127/35
f 48/126/35 42/128/35 41/127/35
f 43/129/36 44/130/36 45/131/36
f 44/130/36 46/132/36 45/131/36
o cube.005
v -0.437500 0.437500 -0.437500
v -0.437500 -0.437500 -0.437500
v -0.437500 0.437500 -0.500000
v -0.437500 -0.437500 -0.500000
v -0.500000 0.437500 -0.500000
v -0.500000 -0.437500 -0.500000
v -0.500000 0.437500 -0.437500
v -0.500000 -0.437500 -0.437500
vt 0.000000 1.000000
vt 0.000000 0.125000
vt 0.062500 1.000000
vt 0.062500 0.125000
vt 0.000000 1.000000
vt 0.000000 0.125000
vt 0.062500 1.000000
vt 0.062500 0.125000
vt 0.000000 0.937500
vt 0.062500 0.937500
vt 0.000000 1.000000
vt 0.000000 0.937500
vt 0.062500 1.000000
vt 0.062500 0.937500
vt 0.000000 1.000000
vt 0.000000 0.125000
vt 0.062500 1.000000
vt 0.062500 0.125000
vt 0.000000 1.000000
vt 0.000000 0.937500
vt 0.062500 1.000000
vt 0.062500 0.937500
vn 1.0000 0.0000 0.0000
vn -1.0000 0.0000 0.0000
vn 0.0000 1.0000 0.0000
vn 0.0000 -1.0000 0.0000
vn 0.0000 -0.0000 1.0000
vn 0.0000 0.0000 -1.0000
usemtl m_0
s 1
f 49/133/37 50/134/37 51/135/37
f 50/134/37 52/136/37 51/135/37
f 53/137/38 54/138/38 55/139/38
f 54/138/38 56/140/38 55/139/38
f 53/137/39 55/141/39 51/135/39
f 55/141/39 49/142/39 51/135/39
f 56/143/40 54/144/40 50/145/40
f 54/144/40 52/146/40 50/145/40
f 55/147/41 56/148/41 49/149/41
f 56/148/41 50/150/41 49/149/41
f 51/151/42 52/152/42 53/153/42
f 52/152/42 54/154/42 53/153/42
o cube.006
v -0.437500 0.437500 0.515625
v -0.437500 -0.437500 0.515625
v -0.437500 0.437500 0.437500
v -0.437500 -0.437500 0.437500
v -0.500000 0.437500 0.437500
v -0.500000 -0.437500 0.437500
v -0.500000 0.437500 0.515625
v -0.500000 -0.437500 0.515625
vt 0.000000 1.000000
vt 0.000000 0.125000
vt 0.078125 1.000000
vt 0.078125 0.125000
vt 0.000000 1.000000
vt 0.000000 0.125000
vt 0.078125 1.000000
vt 0.078125 0.125000
vt 0.000000 0.921875
vt 0.062500 1.000000
vt 0.062500 0.921875
vt 0.000000 1.000000
vt 0.000000 0.921875
vt 0.062500 1.000000
vt 0.062500 0.921875
vt 0.000000 1.000000
vt 0.000000 0.125000
vt 0.062500 1.000000
vt 0.062500 0.125000
vt 0.000000 1.000000
vt 0.000000 0.937500
vt 0.062500 1.000000
vt 0.062500 0.937500
vn 1.0000 0.0000 0.0000
vn -1.0000 0.0000 0.0000
vn 0.0000 1.0000 0.0000
vn 0.0000 -1.0000 -0.0000
vn 0.0000 -0.0000 1.0000
vn 0.0000 0.0000 -1.0000
usemtl m_0
s 1
f 57/155/43 58/156/43 59/157/43
f 58/156/43 60/158/43 59/157/43
f 61/159/44 62/160/44 63/161/44
f 62/160/44 64/162/44 63/161/44
f 61/159/45 63/163/45 59/164/45
f 63/163/45 57/165/45 59/164/45
f 64/166/46 62/167/46 58/168/46
f 62/167/46 60/169/46 58/168/46
f 63/170/47 64/171/47 57/172/47
f 64/171/47 58/173/47 57/172/47
f 59/174/48 60/175/48 61/176/48
f 60/175/48 62/177/48 61/176/48
o cube.007
v 0.500000 0.437500 0.500000
v 0.500000 -0.437500 0.500000
v 0.500000 0.437500 0.437500
v 0.500000 -0.437500 0.437500
v 0.437500 0.437500 0.437500
v 0.437500 -0.437500 0.437500
v 0.437500 0.437500 0.500000
v 0.437500 -0.437500 0.500000
vt 0.000000 1.000000
vt 0.000000 0.125000
vt 0.062500 1.000000
vt 0.062500 0.125000
vt 0.000000 1.000000
vt 0.000000 0.125000
vt 0.062500 1.000000
vt 0.062500 0.125000
vt 0.000000 0.937500
vt 0.062500 0.937500
vt 0.000000 1.000000
vt 0.000000 0.937500
vt 0.062500 1.000000
vt 0.062500 0.937500
vt 0.000000 1.000000
vt 0.000000 0.125000
vt 0.062500 1.000000
vt 0.062500 0.125000
vt 0.000000 1.000000
vt 0.000000 0.937500
vt 0.062500 1.000000
vt 0.062500 0.937500
vn 1.0000 0.0000 0.0000
vn -1.0000 0.0000 0.0000
vn 0.0000 1.0000 0.0000
vn 0.0000 -1.0000 -0.0000
vn 0.0000 -0.0000 1.0000
vn 0.0000 0.0000 -1.0000
usemtl m_0
s 1
f 65/178/49 66/179/49 67/180/49
f 66/179/49 68/181/49 67/180/49
f 69/182/50 70/183/50 71/184/50
f 70/183/50 72/185/50 71/184/50
f 69/182/51 71/186/51 67/180/51
f 71/186/51 65/187/51 67/180/51
f 72/188/52 70/189/52 66/190/52
f 70/189/52 68/191/52 66/190/52
f 71/192/53 72/193/53 65/194/53
f 72/193/53 66/195/53 65/194/53
f 67/196/54 68/197/54 69/198/54
f 68/197/54 70/199/54 69/198/54
o cube.008
v 0.437500 0.500000 0.500000
v 0.437500 0.437500 0.500000
v 0.437500 0.500000 0.437500
v 0.437500 0.437500 0.437500
v -0.437500 0.500000 0.437500
v -0.437500 0.437500 0.437500
v -0.437500 0.500000 0.500000
v -0.437500 0.437500 0.500000
vt 0.000000 1.000000
vt 0.000000 0.937500
vt 0.062500 1.000000
vt 0.062500 0.937500
vt 0.000000 1.000000
vt 0.000000 0.937500
vt 0.062500 1.000000
vt 0.062500 0.937500
vt 0.000000 0.937500
vt 0.875000 1.000000
vt 0.875000 0.937500
vt 0.000000 1.000000
vt 0.875000 1.000000
vt 0.875000 0.937500
vt 0.000000 1.000000
vt 0.000000 0.937500
vt 0.875000 1.000000
vt 0.875000 0.937500
vt 0.000000 1.000000
vt 0.000000 0.937500
vt 0.062500 1.000000
vt 0.062500 0.937500
vn 1.0000 0.0000 0.0000
vn -1.0000 0.0000 0.0000
vn 0.0000 1.0000 0.0000
vn 0.0000 -1.0000 -0.0000
vn 0.0000 0.0000 1.0000
vn 0.0000 0.0000 -1.0000
usemtl m_0
s 1
f 73/200/55 74/201/55 75/202/55
f 74/201/55 76/203/55 75/202/55
f 77/204/56 78/205/56 79/206/56
f 78/205/56 80/207/56 79/206/56
f 77/204/57 79/208/57 75/209/57
f 79/208/57 73/210/57 75/209/57
f 80/211/58 78/205/58 74/212/58
f 78/205/58 76/213/58 74/212/58
f 79/214/59 80/215/59 73/216/59
f 80/215/59 74/217/59 73/216/59
f 75/218/60 76/219/60 77/220/60
f 76/219/60 78/221/60 77/220/60
o cube.009
v -0.437500 0.500000 0.515625
v -0.437500 0.437500 0.515625
v -0.437500 0.500000 -0.500000
v -0.437500 0.437500 -0.500000
v -0.500000 0.500000 -0.500000
v -0.500000 0.437500 -0.500000
v -0.500000 0.500000 0.515625
v -0.500000 0.437500 0.515625
vt 0.000000 1.000000
vt 0.000000 0.937500
vt 1.000000 1.000000
vt 1.000000 0.937500
vt 0.000000 1.000000
vt 0.000000 0.937500
vt 1.000000 1.000000
vt 1.000000 0.937500
vt 0.000000 0.000000
vt 0.062500 1.000000
vt 0.062500 0.000000
vt 0.000000 1.000000
vt 0.000000 0.000000
vt 0.062500 1.000000
vt 0.062500 0.000000
vt 0.000000 1.000000
vt 0.000000 0.937500
vt 0.062500 1.000000
vt 0.062500 0.937500
vt 0.000000 1.000000
vt 0.000000 0.937500
vt 0.062500 1.000000
vt 0.062500 0.937500
vn 1.0000 0.0000 0.0000
vn -1.0000 0.0000 0.0000
vn 0.0000 1.0000 0.0000
vn 0.0000 -1.0000 -0.0000
vn 0.0000 0.0000 1.0000
vn 0.0000 0.0000 -1.0000
usemtl m_0
s 1
f 81/222/61 82/223/61 83/224/61
f 82/223/61 84/225/61 83/224/61
f 85/226/62 86/227/62 87/228/62
f 86/227/62 88/229/62 87/228/62
f 85/226/63 87/230/63 83/231/63
f 87/230/63 81/232/63 83/231/63
f 88/233/64 86/234/64 82/235/64
f 86/234/64 84/236/64 82/235/64
f 87/237/65 88/238/65 81/239/65
f 88/238/65 82/240/65 81/239/65
f 83/241/66 84/242/66 85/243/66
f 84/242/66 86/244/66 85/243/66
o cube.010
v 0.437500 0.500000 -0.437500
v 0.437500 0.437500 -0.437500
v 0.437500 0.500000 -0.500000
v 0.437500 0.437500 -0.500000
v -0.437500 0.500000 -0.500000
v -0.437500 0.437500 -0.500000
v -0.437500 0.500000 -0.437500
v -0.437500 0.437500 -0.437500
vt 0.000000 1.000000
vt 0.000000 0.937500
vt 0.062500 1.000000
vt 0.062500 0.937500
vt 0.000000 1.000000
vt 0.000000 0.937500
vt 0.062500 1.000000
vt 0.062500 0.937500
vt 0.000000 0.937500
vt 0.875000 1.000000
vt 0.875000 0.937500
vt 0.000000 1.000000
vt 0.875000 1.000000
vt 0.875000 0.937500
vt 0.000000 1.000000
vt 0.000000 0.937500
vt 0.875000 1.000000
vt 0.875000 0.937500
vt 0.000000 1.000000
vt 0.000000 0.937500
vt 0.062500 1.000000
vt 0.062500 0.937500
vn 1.0000 0.0000 0.0000
vn -1.0000 0.0000 0.0000
vn 0.0000 1.0000 0.0000
vn 0.0000 -1.0000 0.0000
vn 0.0000 -0.0000 1.0000
vn 0.0000 0.0000 -1.0000
usemtl m_0
s 1
f 89/245/67 90/246/67 91/247/67
f 90/246/67 92/248/67 91/247/67
f 93/249/68 94/250/68 95/251/68
f 94/250/68 96/252/68 95/251/68
f 93/249/69 95/253/69 91/254/69
f 95/253/69 89/255/69 91/254/69
f 96/256/70 94/250/70 90/257/70
f 94/250/70 92/258/70 90/257/70
f 95/259/71 96/260/71 89/261/71
f 96/260/71 90/262/71 89/261/71
f 91/263/72 92/264/72 93/265/72
f 92/264/72 94/266/72 93/265/72
o cube.011
v 0.500000 0.500000 0.500000
v 0.500000 0.437500 0.500000
v 0.500000 0.500000 -0.500000
v 0.500000 0.437500 -0.500000
v 0.437500 0.500000 -0.500000
v 0.437500 0.437500 -0.500000
v 0.437500 0.500000 0.500000
v 0.437500 0.437500 0.500000
vt 0.000000 1.000000
vt 0.000000 0.937500
vt 1.000000 1.000000
vt 1.000000 0.937500
vt 0.000000 1.000000
vt 0.000000 0.937500
vt 1.000000 1.000000
vt 1.000000 0.937500
vt 0.000000 0.000000
vt 0.062500 1.000000
vt 0.062500 0.000000
vt 0.000000 1.000000
vt 0.000000 0.000000
vt 0.062500 1.000000
vt 0.062500 0.000000
vt 0.000000 1.000000
vt 0.000000 0.937500
vt 0.062500 1.000000
vt 0.062500 0.937500
vt 0.000000 1.000000
vt 0.000000 0.937500
vt 0.062500 1.000000
vt 0.062500 0.937500
vn 1.0000 0.0000 0.0000
vn -1.0000 0.0000 0.0000
vn 0.0000 1.0000 0.0000
vn 0.0000 -1.0000 -0.0000
vn 0.0000 0.0000 1.0000
vn 0.0000 0.0000 -1.0000
usemtl m_0
s 1
f 97/267/73 98/268/73 99/269/73
f 98/268/73 100/270/73 99/269/73
f 101/271/74 102/272/74 103/273/74
f 102/272/74 104/274/74 103/273/74
f 101/271/75 103/275/75 99/276/75
f 103/275/75 97/277/75 99/276/75
f 104/278/76 102/279/76 98/280/76
f 102/279/76 100/281/76 98/280/76
f 103/282/77 104/283/77 97/284/77
f 104/283/77 98/285/77 97/284/77
f 99/286/78 100/287/78 101/288/78
f 100/287/78 102/289/78 101/288/78
